ModelForces
version=1
nRows=4
nColumns=151
inDegrees=no

This file contains the forces exerted on a model during a simulation.

A force is a generalized force, meaning that it can be either a force (N) or a torque (Nm).

Units are S.I. units (second, meters, Newtons, ...)
Angles are in degrees.

endheader
time	glut_med1_r	glut_med2_r	glut_med3_r	glut_min1_r	glut_min2_r	glut_min3_r	semimem_r	semiten_r	bifemlh_r	bifemsh_r	sar_r	add_long_r	add_brev_r	add_mag1_r	add_mag2_r	add_mag3_r	tfl_r	pect_r	grac_r	glut_max1_r	glut_max2_r	glut_max3_r	iliacus_r	psoas_r	quad_fem_r	gem_r	peri_r	rect_fem_r	vas_med_r	vas_int_r	vas_lat_r	med_gas_r	lat_gas_r	soleus_r	tib_post_r	flex_dig_r	flex_hal_r	tib_ant_r	per_brev_r	per_long_r	per_tert_r	ext_dig_r	ext_hal_r	glut_med1_l	glut_med2_l	glut_med3_l	glut_min1_l	glut_min2_l	glut_min3_l	semimem_l	semiten_l	bifemlh_l	bifemsh_l	sar_l	add_long_l	add_brev_l	add_mag1_l	add_mag2_l	add_mag3_l	tfl_l	pect_l	grac_l	glut_max1_l	glut_max2_l	glut_max3_l	iliacus_l	psoas_l	quad_fem_l	gem_l	peri_l	rect_fem_l	vas_med_l	vas_int_l	vas_lat_l	med_gas_l	lat_gas_l	soleus_l	tib_post_l	flex_dig_l	flex_hal_l	tib_ant_l	per_brev_l	per_long_l	per_tert_l	ext_dig_l	ext_hal_l	ercspn_r	ercspn_l	intobl_r	intobl_l	extobl_r	extobl_l	contactForce_femur_lat_meniscii_l.femur_lat_l.force.X	contactForce_femur_lat_meniscii_l.femur_lat_l.force.Y	contactForce_femur_lat_meniscii_l.femur_lat_l.force.Z	contactForce_femur_lat_meniscii_l.femur_lat_l.torque.X	contactForce_femur_lat_meniscii_l.femur_lat_l.torque.Y	contactForce_femur_lat_meniscii_l.femur_lat_l.torque.Z	contactForce_femur_lat_meniscii_l.meniscus_lat_l.force.X	contactForce_femur_lat_meniscii_l.meniscus_lat_l.force.Y	contactForce_femur_lat_meniscii_l.meniscus_lat_l.force.Z	contactForce_femur_lat_meniscii_l.meniscus_lat_l.torque.X	contactForce_femur_lat_meniscii_l.meniscus_lat_l.torque.Y	contactForce_femur_lat_meniscii_l.meniscus_lat_l.torque.Z	contactForce_femur_med_meniscii_l.femur_med_l.force.X	contactForce_femur_med_meniscii_l.femur_med_l.force.Y	contactForce_femur_med_meniscii_l.femur_med_l.force.Z	contactForce_femur_med_meniscii_l.femur_med_l.torque.X	contactForce_femur_med_meniscii_l.femur_med_l.torque.Y	contactForce_femur_med_meniscii_l.femur_med_l.torque.Z	contactForce_femur_med_meniscii_l.meniscus_med_l.force.X	contactForce_femur_med_meniscii_l.meniscus_med_l.force.Y	contactForce_femur_med_meniscii_l.meniscus_med_l.force.Z	contactForce_femur_med_meniscii_l.meniscus_med_l.torque.X	contactForce_femur_med_meniscii_l.meniscus_med_l.torque.Y	contactForce_femur_med_meniscii_l.meniscus_med_l.torque.Z	contactForce_femur_lat_meniscii_r.femur_lat_r.force.X	contactForce_femur_lat_meniscii_r.femur_lat_r.force.Y	contactForce_femur_lat_meniscii_r.femur_lat_r.force.Z	contactForce_femur_lat_meniscii_r.femur_lat_r.torque.X	contactForce_femur_lat_meniscii_r.femur_lat_r.torque.Y	contactForce_femur_lat_meniscii_r.femur_lat_r.torque.Z	contactForce_femur_lat_meniscii_r.meniscus_lat_r.force.X	contactForce_femur_lat_meniscii_r.meniscus_lat_r.force.Y	contactForce_femur_lat_meniscii_r.meniscus_lat_r.force.Z	contactForce_femur_lat_meniscii_r.meniscus_lat_r.torque.X	contactForce_femur_lat_meniscii_r.meniscus_lat_r.torque.Y	contactForce_femur_lat_meniscii_r.meniscus_lat_r.torque.Z	contactForce_femur_med_meniscii_r.femur_med_r.force.X	contactForce_femur_med_meniscii_r.femur_med_r.force.Y	contactForce_femur_med_meniscii_r.femur_med_r.force.Z	contactForce_femur_med_meniscii_r.femur_med_r.torque.X	contactForce_femur_med_meniscii_r.femur_med_r.torque.Y	contactForce_femur_med_meniscii_r.femur_med_r.torque.Z	contactForce_femur_med_meniscii_r.meniscus_med_r.force.X	contactForce_femur_med_meniscii_r.meniscus_med_r.force.Y	contactForce_femur_med_meniscii_r.meniscus_med_r.force.Z	contactForce_femur_med_meniscii_r.meniscus_med_r.torque.X	contactForce_femur_med_meniscii_r.meniscus_med_r.torque.Y	contactForce_femur_med_meniscii_r.meniscus_med_r.torque.Z	aACL_R	pACL_R	aPCL_R	pPCL_R	aMCL_R	aLCL_R	aPCL_L	pPCL_L	aMCL_L	aLCL_L
      0.48717399	      7.60506006	      5.70509904	      6.10735671	      2.67661422	      3.19806846	      3.21684949	     12.63932342	      5.83157525	     11.07428583	      7.50958047	      1.55424693	      5.65271844	      4.16834360	      2.93904497	      2.47104132	      4.01863961	      2.54063441	      2.25369306	      1.60579497	      3.68144212	      5.59467263	      4.17681336	     22.71894337	     13.04707327	      3.65131313	      2.86584777	      4.13615712	      6.57984682	      0.00000000	      3.63791243	      0.00000000	     19.41625993	      9.78983486	     39.98833421	     28.49508040	      3.46304859	      3.14430039	      0.00000000	      7.20658190	     15.87393720	      3.50585632	      4.77131244	      1.88480007	      9.29913211	      5.72592790	      5.59348859	      5.52638222	      5.54746638	      3.59544891	      9.84698904	      4.26641147	      7.04342613	      7.89405036	      1.66548389	      5.45169298	      3.83339732	      2.35168984	      2.07960326	      3.48755714	      5.85435245	      2.21288330	      1.58616457	      3.31478149	      4.90366557	      3.20556714	     26.22621882	     15.65592544	      2.63891183	      1.25633804	      3.07343904	     10.63646558	      5.77987666	      6.32435032	      6.57171214	      4.36977455	      2.16179556	      5.68162815	     12.67145531	      2.64804968	      2.67658427	     22.03134330	      3.61815175	      7.06269489	     14.31841482	     11.77934898	      2.67891649	     25.17323118	     25.17323118	      9.06548567	      9.06548567	     26.86343151	     26.86343151	      3.70607703	      9.12376794	     -3.21871652	      1.44373147	     -0.06661563	      1.47255371	     -3.70607703	     -9.12376794	      3.21871652	     -0.34634882	      0.11537480	     -0.07079870	     -3.59872114	     13.97803055	     -1.44790467	      0.22324839	     -0.06556701	     -1.18143798	      3.59872114	    -13.97803055	      1.44790467	      0.11702523	      0.00570498	     -0.24220761	    144.90918479	    641.66802745	   -104.75911246	     28.91878315	      5.15335899	     70.43076851	   -144.90918479	   -641.66802745	    104.75911246	     14.77678210	     -7.00184017	    -21.31067439	    -67.72295672	    529.60257219	    136.88823275	    -49.18884633	     -1.71081084	    -14.90399952	     67.72295672	   -529.60257219	   -136.88823275	     -1.04890340	      3.51640380	    -16.93581271	      0.00000000	      0.00000000	      0.00000000	      0.00000000	      0.00000000	     30.03574691	      0.00000000	      0.00000000	      0.00000000	      5.79830075
      0.48812530	      7.60433476	      5.70459945	      6.10681526	      2.67638977	      3.19782566	      3.21654332	     12.52675975	      5.78373581	     10.94619292	      7.35127998	      1.55698652	      5.65221766	      4.16799723	      2.93878949	      2.47082140	      4.01824344	      2.55909071	      2.25350288	      1.59864302	      3.68112000	      5.59418161	      4.17644006	     22.71803743	     13.04605435	      3.65100029	      2.86570130	      4.13557665	      6.80301731	      0.00000000	      3.77731774	      0.00000000	     19.63316494	      9.87268136	     41.97304336	     29.01947453	      3.20104748	      2.88675177	      0.00000000	      7.19463084	     15.86365958	      3.54315961	      4.83758233	      1.94925622	      9.29143989	      5.72449162	      5.59328153	      5.52663289	      5.54704309	      3.59190431	      9.81543539	      4.25700891	      7.02713326	      7.87551917	      1.66395654	      5.45277563	      3.83568832	      2.35450054	      2.08172898	      3.49111595	      5.85654683	      2.21290598	      1.58434200	      3.31577910	      4.90624011	      3.20976284	     26.22540049	     15.65113857	      2.64050633	      1.25699353	      3.07472206	     10.64674745	      5.78965431	      6.33343566	      6.57769151	      4.34948270	      2.15152851	      5.67096038	     12.61741559	      2.67185399	      2.66572336	     22.02811747	      3.64414349	      7.10160076	     14.33732427	     11.71547290	      2.67810335	     25.17111548	     25.17111548	      9.06465594	      9.06465594	     26.86268621	     26.86268621	      3.69353751	      9.07426999	     -3.20333908	      1.43626728	     -0.06634090	      1.46721759	     -3.69353751	     -9.07426999	      3.20333908	     -0.34447522	      0.11494753	     -0.07066092	     -3.63636188	     13.95377453	     -1.45278316	      0.22522475	     -0.06669917	     -1.19880874	      3.63636188	    -13.95377453	      1.45278316	      0.11663474	      0.00598566	     -0.24002085	    147.19769508	    638.01044907	   -105.25301633	     29.23204692	      5.21289237	     71.35364989	   -147.19769508	   -638.01044907	    105.25301633	     14.63597994	     -7.07476885	    -21.28975649	    -63.15478192	    524.36194448	    136.50135457	    -49.13551097	     -1.80474595	    -13.09883778	     63.15478192	   -524.36194448	   -136.50135457	     -0.97915743	      3.57894175	    -16.90307484	      0.00000000	      0.00000000	      0.00000000	      0.00000000	      0.00000000	     30.98927526	      0.00000000	      0.00000000	      0.00000000	      5.77956710
      0.48892484	      7.60373202	      5.70418427	      6.10636530	      2.67620325	      3.19762389	      3.21628889	     12.43025993	      5.74274949	     10.83539618	      7.23147380	      1.55963143	      5.65180150	      4.16770939	      2.93857717	      2.47063863	      4.01791421	      2.57488290	      2.25334483	      1.59260143	      3.68085231	      5.59377357	      4.17612984	     22.71728458	     13.04520761	      3.65074032	      2.86557958	      4.13509420	      6.99600716	      0.00000000	      3.90004228	      0.00000000	     19.81642444	      9.94353815	     40.26548656	     29.49774332	      2.97209956	      2.67010843	      0.00000000	      7.18358800	     15.85432817	      3.25579508	      4.88635305	      2.00016289	      9.28516212	      5.72318072	      5.59294987	      5.52686206	      5.54668482	      3.58885573	      9.78885470	      4.24912200	      7.01359636	      7.85992282	      1.66267627	      5.45371683	      3.83761084	      2.35685589	      2.08351123	      3.49409973	      5.85836639	      2.21293618	      1.58280682	      3.31658264	      4.90835305	      3.21324816	     26.22474980	     15.64715212	      2.64176705	      1.25745117	      3.07560113	     10.65525449	      5.79785591	      6.34106047	      6.58279380	      4.33275977	      2.14303799	      5.66234249	     12.57016231	      2.69132359	      2.65593270	     22.02503330	      3.66617919	      7.13487971	     14.35303688	     11.66543436	      2.67825924	     25.16935728	     25.16935728	      9.06396642	      9.06396642	     26.86206684	     26.86206684	      3.66422796	      9.03624987	     -3.19021301	      1.42995278	     -0.06592245	      1.45476773	     -3.66422796	     -9.03624987	      3.19021301	     -0.34298638	      0.11410867	     -0.06980838	     -3.62293028	     13.93399619	     -1.45097334	      0.22434295	     -0.06660629	     -1.19429794	      3.62293028	    -13.93399619	      1.45097334	      0.11657132	      0.00589658	     -0.23993749	    135.39794313	    635.48054916	   -104.66894102	     29.05286444	      4.90836947	     66.30991888	   -135.39794313	   -635.48054916	    104.66894102	     14.57677688	     -6.70180013	    -20.75988902	    -70.90065085	    518.96186230	    135.62698654	    -48.85329717	     -1.65877667	    -16.51351458	     70.90065085	   -518.96186230	   -135.62698654	     -0.95064593	      3.45852312	    -16.40863363	      0.00000000	      0.00000000	      0.00000000	      0.00000000	     12.52815513	     31.38739480	      0.00000000	      0.00000000	      0.00000000	      5.75987915
      0.48972438	      7.60313546	      5.70377336	      6.10591996	      2.67601864	      3.19742418	      3.21603706	     12.33161121	      5.70090955	     10.72236198	      7.13742223	      1.56145825	      5.65138961	      4.16742450	      2.93836703	      2.47045775	      4.01758836	      2.59131739	      2.25318840	      1.58679881	      3.68058736	      5.59336970	      4.17582280	     22.71653945	     13.04436955	      3.65048300	      2.86545911	      4.13461663	      7.19116363	      1.69520207	      4.02283580	      0.00000000	     19.97804039	     10.00421210	     43.05743304	     29.98511153	      2.73872477	      2.45561026	      0.00000000	      7.16859133	     15.84056090	      3.36354909	      4.92955229	      2.04829504	      9.27904980	      5.72177943	      5.59248456	      5.52711940	      5.54633069	      3.58574769	      9.76220459	      4.24124183	      7.00021278	      7.84427275	      1.66140257	      5.45468242	      3.83952141	      2.35919752	      2.08528506	      3.49707255	      5.86015222	      2.21297390	      1.58126651	      3.31735358	      4.91041594	      3.21668881	     26.22414718	     15.64320829	      2.64295268	      1.25782824	      3.07630248	     10.66367440	      5.80610716	      6.34871935	      6.58802917	      4.31637693	      2.13470214	      5.65409426	     12.52140896	      2.71028256	      2.64553557	     22.02159432	      3.68835214	      7.16864365	     14.36855695	     11.61865510	      2.67921309	     25.16761709	     25.16761709	      9.06328397	      9.06328397	     26.86145383	     26.86145383	      3.64780058	      8.99094979	     -3.18215392	      1.42571459	     -0.06569421	      1.44785141	     -3.64780058	     -8.99094979	      3.18215392	     -0.34150338	      0.11364605	     -0.06950234	     -3.63166641	     13.90242435	     -1.45553865	      0.22639289	     -0.06679108	     -1.19948515	      3.63166641	    -13.90242435	      1.45553865	      0.11622105	      0.00572261	     -0.23864865	    140.28721084	    632.35664365	   -105.07715707	     29.31286898	      5.02766832	     68.33533088	   -140.28721084	   -632.35664365	    105.07715707	     14.45884112	     -6.84685380	    -20.84416119	    -64.15695214	    514.41956939	    135.98600358	    -49.09767780	     -1.81316302	    -13.77748805	     64.15695214	   -514.41956939	   -135.98600358	     -0.86776915	      3.57890664	    -16.47535969	      0.00000000	      0.00000000	      0.00000000	      0.00000000	     13.32068174	     32.31388742	      0.00000000	      0.00000000	      0.00000000	      5.73788532
